<svg width="4221" height="440" xmlns="http://www.w3.org/2000/svg" xmlns:xlink="http://www.w3.org/1999/xlink" xml:space="preserve" overflow="hidden"><g transform="translate(-50 -926)"><path d="M53.5001 1001.67C53.5001 961.811 85.8109 929.5 125.668 929.5L740.332 929.5C780.189 929.5 812.5 961.811 812.5 1001.67L812.5 1290.33C812.5 1330.19 780.189 1362.5 740.332 1362.5L125.668 1362.5C85.8109 1362.5 53.5001 1330.19 53.5001 1290.33Z" stroke="#042433" stroke-width="6.875" stroke-miterlimit="8" fill="#156082" fill-rule="evenodd"/><text fill="#FFFFFF" font-family="Aptos,Aptos_MSFontService,sans-serif" font-weight="400" font-size="83" transform="matrix(1 0 0 1 109.965 1122)">Preconditioning of </text><text fill="#FFFFFF" font-family="Aptos,Aptos_MSFontService,sans-serif" font-weight="400" font-size="83" transform="matrix(1 0 0 1 352.148 1221)">data</text><path d="M917.5 1001.67C917.5 961.811 949.811 929.5 989.668 929.5L1604.33 929.5C1644.19 929.5 1676.5 961.811 1676.5 1001.67L1676.5 1290.33C1676.5 1330.19 1644.19 1362.5 1604.33 1362.5L989.668 1362.5C949.811 1362.5 917.5 1330.19 917.5 1290.33Z" stroke="#042433" stroke-width="6.875" stroke-miterlimit="8" fill="#156082" fill-rule="evenodd"/><text fill="#FFFFFF" font-family="Aptos,Aptos_MSFontService,sans-serif" font-weight="400" font-size="83" transform="matrix(1 0 0 1 1031.35 1073)">Estimation of a </text><text fill="#FFFFFF" font-family="Aptos,Aptos_MSFontService,sans-serif" font-weight="400" font-size="83" transform="matrix(1 0 0 1 1133.31 1172)">similarity </text><text fill="#FFFFFF" font-family="Aptos,Aptos_MSFontService,sans-serif" font-weight="400" font-size="83" transform="matrix(1 0 0 1 1139.31 1271)">measure</text><path d="M812 1139.84 891.477 1139.84 891.477 1150.16 812 1150.16ZM886.321 1129.53 917.259 1145 886.321 1160.47Z"/><path d="M1781.5 1001.67C1781.5 961.811 1813.81 929.5 1853.67 929.5L2467.33 929.5C2507.19 929.5 2539.5 961.811 2539.5 1001.67L2539.5 1290.33C2539.5 1330.19 2507.19 1362.5 2467.33 1362.5L1853.67 1362.5C1813.81 1362.5 1781.5 1330.19 1781.5 1290.33Z" stroke="#042433" stroke-width="6.875" stroke-miterlimit="8" fill="#156082" fill-rule="evenodd"/><text fill="#FFFFFF" font-family="Aptos,Aptos_MSFontService,sans-serif" font-weight="400" font-size="83" transform="matrix(1 0 0 1 1914.14 1073)">Application of </text><text fill="#FFFFFF" font-family="Aptos,Aptos_MSFontService,sans-serif" font-weight="400" font-size="83" transform="matrix(1 0 0 1 1961.26 1172)">topological </text><text fill="#FFFFFF" font-family="Aptos,Aptos_MSFontService,sans-serif" font-weight="400" font-size="83" transform="matrix(1 0 0 1 1928.14 1271)">assumptions</text><path d="M2645.5 1001.67C2645.5 961.811 2677.81 929.5 2717.67 929.5L3331.33 929.5C3371.19 929.5 3403.5 961.811 3403.5 1001.67L3403.5 1290.33C3403.5 1330.19 3371.19 1362.5 3331.33 1362.5L2717.67 1362.5C2677.81 1362.5 2645.5 1330.19 2645.5 1290.33Z" stroke="#042433" stroke-width="6.875" stroke-miterlimit="8" fill="#156082" fill-rule="evenodd"/><text fill="#FFFFFF" font-family="Aptos,Aptos_MSFontService,sans-serif" font-weight="400" font-size="83" transform="matrix(1 0 0 1 2764.27 1172)">Deconvolution</text><path d="M3509.5 1001.67C3509.5 961.811 3541.81 929.5 3581.67 929.5L4195.33 929.5C4235.19 929.5 4267.5 961.811 4267.5 1001.67L4267.5 1290.33C4267.5 1330.19 4235.19 1362.5 4195.33 1362.5L3581.67 1362.5C3541.81 1362.5 3509.5 1330.19 3509.5 1290.33Z" stroke="#042433" stroke-width="6.875" stroke-miterlimit="8" fill="#156082" fill-rule="evenodd"/><text fill="#FFFFFF" font-family="Aptos,Aptos_MSFontService,sans-serif" font-weight="400" font-size="83" transform="matrix(1 0 0 1 3711.46 1073)">Threshold </text><text fill="#FFFFFF" font-family="Aptos,Aptos_MSFontService,sans-serif" font-weight="400" font-size="83" transform="matrix(1 0 0 1 3692.78 1172)">discovered </text><text fill="#FFFFFF" font-family="Aptos,Aptos_MSFontService,sans-serif" font-weight="400" font-size="83" transform="matrix(1 0 0 1 3634.41 1271)">dependencies</text><path d="M1676 1139.84 1755.48 1139.84 1755.48 1150.16 1676 1150.16ZM1750.32 1129.53 1781.26 1145 1750.32 1160.47Z"/><path d="M2539 1139.84 2618.48 1139.84 2618.48 1150.16 2539 1150.16ZM2613.32 1129.53 2644.26 1145 2613.32 1160.47Z"/><path d="M3403 1139.84 3482.48 1139.84 3482.48 1150.16 3403 1150.16ZM3477.32 1129.53 3508.26 1145 3477.32 1160.47Z"/></g></svg>