<svg width="2137" height="1251" xmlns="http://www.w3.org/2000/svg" xmlns:xlink="http://www.w3.org/1999/xlink" xml:space="preserve" overflow="hidden"><g transform="translate(-654 -632)"><path d="M753.5 1761.06 2740.07 1761.06 2740.07 1767.94 753.5 1767.94ZM2735.49 1750.75 2762.99 1764.5 2735.49 1778.25Z"/><path d="M3.4375-1.1233e-06 3.43785 1081.48-3.43715 1081.48-3.4375 1.1233e-06ZM13.7504 1076.89 0.000360892 1104.39-13.7496 1076.89Z" transform="matrix(1 0 0 -1 753.5 1764.89)"/><rect x="779" y="756" width="366" height="1008" stroke="#980000" stroke-width="10.3125" stroke-miterlimit="8" stroke-dasharray="41.25 30.9375" fill="none"/><rect x="2300" y="756" width="366" height="1008" stroke="#FFC000" stroke-width="10.3125" stroke-miterlimit="8" stroke-dasharray="41.25 30.9375" fill="none"/><rect x="1159" y="756" width="366" height="1008" stroke="#115287" stroke-width="10.3125" stroke-miterlimit="8" stroke-dasharray="41.25 30.9375" fill="none"/><rect x="1539" y="756" width="366" height="1008" stroke="#3B7D23" stroke-width="10.3125" stroke-miterlimit="8" stroke-dasharray="41.25 30.9375" fill="none"/><rect x="1919" y="756" width="366" height="1008" stroke="#78206E" stroke-width="10.3125" stroke-miterlimit="8" stroke-dasharray="41.25 30.9375" fill="none"/><path d="M734.5 758.5 773.96 758.501" stroke="#000000" stroke-width="6.875" stroke-miterlimit="8" fill="none" fill-rule="evenodd"/><path d="M734.5 960.5 773.96 960.5" stroke="#000000" stroke-width="6.875" stroke-miterlimit="8" fill="none" fill-rule="evenodd"/><path d="M734.5 1161.5 773.96 1161.5" stroke="#000000" stroke-width="6.875" stroke-miterlimit="8" fill="none" fill-rule="evenodd"/><path d="M734.5 1362.5 773.96 1362.5" stroke="#000000" stroke-width="6.875" stroke-miterlimit="8" fill="none" fill-rule="evenodd"/><path d="M734.5 1563.5 773.96 1563.5" stroke="#000000" stroke-width="6.875" stroke-miterlimit="8" fill="none" fill-rule="evenodd"/><path d="M734.5 1764.5 773.96 1764.5" stroke="#000000" stroke-width="6.875" stroke-miterlimit="8" fill="none" fill-rule="evenodd"/><path d="M709.763 739.199 711.723 739.199C711.581 741.481 711.509 744.641 711.509 748.681L711.509 779.121C711.509 780.499 711.586 781.539 711.741 782.24 711.895 782.941 712.169 783.511 712.561 783.951 712.953 784.391 713.517 784.735 714.254 784.985 714.991 785.234 715.917 785.424 717.034 785.555 718.151 785.686 719.624 785.775 721.454 785.822L721.454 788.424 695.113 788.424 695.113 785.822C697.75 785.704 699.634 785.543 700.762 785.341 701.891 785.139 702.753 784.836 703.347 784.432 703.941 784.028 704.374 783.458 704.648 782.721 704.921 781.985 705.058 780.785 705.058 779.121L705.058 750.214C705.058 749.263 704.891 748.568 704.559 748.128 704.226 747.689 703.739 747.469 703.097 747.469 702.337 747.469 701.256 747.861 699.854 748.645 698.451 749.429 696.717 750.511 694.649 751.889L693.081 749.144Z" fill-rule="evenodd"/><text fill="#000000" fill-opacity="0" font-family="Arial,Arial_MSFontService,sans-serif" font-size="49.2251" x="693.081" y="782.271">1</text><path d="M706.947 1748.22C705.307 1748.22 703.935 1748.71 702.83 1749.68 701.725 1750.66 700.834 1752.06 700.156 1753.89 699.479 1755.72 698.998 1757.94 698.713 1760.57 698.428 1763.2 698.285 1766.16 698.285 1769.46 698.285 1777.21 699.004 1782.9 700.442 1786.52 701.879 1790.14 704.107 1791.96 707.125 1791.96 710 1791.96 712.133 1790.25 713.523 1786.84 714.913 1783.43 715.608 1778.15 715.608 1771 715.608 1765.53 715.252 1761.11 714.539 1757.72 713.826 1754.33 712.834 1751.9 711.563 1750.43 710.291 1748.96 708.753 1748.22 706.947 1748.22ZM707.125 1745.19C712.329 1745.19 716.202 1747.2 718.745 1751.21 721.288 1755.23 722.559 1761.3 722.559 1769.43 722.559 1777.84 721.199 1784.2 718.478 1788.52 715.757 1792.83 711.783 1794.99 706.555 1794.99 701.422 1794.99 697.602 1792.97 695.095 1788.93 692.588 1784.89 691.334 1778.76 691.334 1770.53 691.334 1766.16 691.721 1762.38 692.493 1759.2 693.265 1756.01 694.346 1753.38 695.737 1751.3 697.127 1749.22 698.796 1747.69 700.745 1746.69 702.693 1745.69 704.82 1745.19 707.125 1745.19Z" fill-rule="evenodd"/><text fill="#000000" fill-opacity="0" font-family="Arial,Arial_MSFontService,sans-serif" font-size="49.7954" x="691.334" y="1788.76">0</text><path d="M0 0 0.000360892 39.9616" stroke="#000000" stroke-width="6.875" stroke-miterlimit="8" fill="none" fill-rule="evenodd" transform="matrix(1 0 0 -1 772.5 1786.46)"/><path d="M0 0 0.000360892 39.9616" stroke="#000000" stroke-width="6.875" stroke-miterlimit="8" fill="none" fill-rule="evenodd" transform="matrix(1 0 0 -1 1152.5 1786.46)"/><path d="M0 0 0.000360892 39.9616" stroke="#000000" stroke-width="6.875" stroke-miterlimit="8" fill="none" fill-rule="evenodd" transform="matrix(1 0 0 -1 1532.5 1786.46)"/><path d="M0 0 0.000360892 39.9616" stroke="#000000" stroke-width="6.875" stroke-miterlimit="8" fill="none" fill-rule="evenodd" transform="matrix(1 0 0 -1 1913.5 1786.46)"/><path d="M0 0 0.000360892 39.9616" stroke="#000000" stroke-width="6.875" stroke-miterlimit="8" fill="none" fill-rule="evenodd" transform="matrix(1 0 0 -1 2293.5 1786.46)"/><path d="M0 0 0.000360892 39.9616" stroke="#000000" stroke-width="6.875" stroke-miterlimit="8" fill="none" fill-rule="evenodd" transform="matrix(1 0 0 -1 2673.5 1786.46)"/><path d="M2686.66 1817.92 2688.62 1817.92C2688.47 1820.2 2688.4 1823.36 2688.4 1827.4L2688.4 1857.84C2688.4 1859.22 2688.48 1860.26 2688.64 1860.96 2688.79 1861.66 2689.06 1862.23 2689.46 1862.67 2689.85 1863.11 2690.41 1863.46 2691.15 1863.71 2691.88 1863.96 2692.81 1864.15 2693.93 1864.28 2695.05 1864.41 2696.52 1864.5 2698.35 1864.54L2698.35 1867.15 2672.01 1867.15 2672.01 1864.54C2674.64 1864.43 2676.53 1864.26 2677.66 1864.06 2678.79 1863.86 2679.65 1863.56 2680.24 1863.15 2680.83 1862.75 2681.27 1862.18 2681.54 1861.44 2681.82 1860.71 2681.95 1859.51 2681.95 1857.84L2681.95 1828.94C2681.95 1827.98 2681.79 1827.29 2681.45 1826.85 2681.12 1826.41 2680.63 1826.19 2679.99 1826.19 2679.23 1826.19 2678.15 1826.58 2676.75 1827.37 2675.35 1828.15 2673.61 1829.23 2671.54 1830.61L2669.98 1827.87Z" fill-rule="evenodd"/><text fill="#000000" fill-opacity="0" font-family="Arial,Arial_MSFontService,sans-serif" font-size="49.2251" x="2669.98" y="1860.99">1</text><path d="M782.621 1820.95C780.981 1820.95 779.609 1821.44 778.504 1822.41 777.399 1823.39 776.508 1824.79 775.831 1826.62 775.153 1828.45 774.672 1830.68 774.387 1833.3 774.102 1835.93 773.959 1838.89 773.959 1842.19 773.959 1849.94 774.678 1855.63 776.116 1859.25 777.553 1862.87 779.781 1864.69 782.799 1864.69 785.674 1864.69 787.807 1862.98 789.197 1859.57 790.587 1856.16 791.282 1850.88 791.282 1843.73 791.282 1838.26 790.926 1833.84 790.213 1830.45 789.5 1827.06 788.508 1824.63 787.237 1823.16 785.966 1821.69 784.427 1820.95 782.621 1820.95ZM782.799 1817.92C788.003 1817.92 791.877 1819.93 794.419 1823.94 796.962 1827.96 798.233 1834.03 798.233 1842.16 798.233 1850.57 796.873 1856.93 794.152 1861.25 791.431 1865.56 787.457 1867.72 782.229 1867.72 777.096 1867.72 773.276 1865.7 770.769 1861.66 768.262 1857.62 767.009 1851.49 767.009 1843.26 767.009 1838.89 767.395 1835.11 768.167 1831.93 768.939 1828.75 770.021 1826.11 771.411 1824.03 772.801 1821.95 774.47 1820.42 776.419 1819.42 778.367 1818.42 780.494 1817.92 782.799 1817.92Z" fill-rule="evenodd"/><text fill="#000000" fill-opacity="0" font-family="Arial,Arial_MSFontService,sans-serif" font-size="49.7954" x="767.009" y="1861.49">0</text></g></svg>