<svg width="3763" height="2041" xmlns="http://www.w3.org/2000/svg" xmlns:xlink="http://www.w3.org/1999/xlink" xml:space="preserve" overflow="hidden"><g transform="translate(-319 -260)"><path d="M322.5 315.834C322.5 286.931 345.931 263.5 374.834 263.5L1029.17 263.5C1058.07 263.5 1081.5 286.931 1081.5 315.834L1081.5 525.166C1081.5 554.069 1058.07 577.5 1029.17 577.5L374.834 577.5C345.931 577.5 322.5 554.069 322.5 525.166Z" stroke="#042433" stroke-width="6.875" stroke-miterlimit="8" fill="#156082" fill-rule="evenodd"/><text fill="#FFFFFF" font-family="Aptos,Aptos_MSFontService,sans-serif" font-weight="400" font-size="83" transform="matrix(1 0 0 1 567.089 447)">Batch 1</text><path d="M322.5 681.5 4077.67 681.501" stroke="#156082" stroke-width="6.875" stroke-miterlimit="8" stroke-dasharray="27.5 20.625" fill="none" fill-rule="evenodd"/><path d="M1151.5 315.834C1151.5 286.931 1174.93 263.5 1203.83 263.5L1858.17 263.5C1887.07 263.5 1910.5 286.931 1910.5 315.834L1910.5 525.166C1910.5 554.069 1887.07 577.5 1858.17 577.5L1203.83 577.5C1174.93 577.5 1151.5 554.069 1151.5 525.166Z" stroke="#042433" stroke-width="6.875" stroke-miterlimit="8" fill="#156082" fill-rule="evenodd"/><text fill="#FFFFFF" font-family="Aptos,Aptos_MSFontService,sans-serif" font-weight="400" font-size="83" transform="matrix(1 0 0 1 1395.88 447)">Batch 2</text><path d="M2490.5 315.834C2490.5 286.931 2513.93 263.5 2542.83 263.5L3197.17 263.5C3226.07 263.5 3249.5 286.931 3249.5 315.834L3249.5 525.166C3249.5 554.069 3226.07 577.5 3197.17 577.5L2542.83 577.5C2513.93 577.5 2490.5 554.069 2490.5 525.166Z" stroke="#042433" stroke-width="6.875" stroke-miterlimit="8" fill="#156082" fill-rule="evenodd"/><text fill="#FFFFFF" font-family="Aptos,Aptos_MSFontService,sans-serif" font-weight="400" font-size="83" transform="matrix(1 0 0 1 2643.1 448)">Batch </text><path d="M2881.02 408.153C2882.72 408.153 2884.07 408.713 2885.06 409.835 2886.04 410.956 2886.53 412.422 2886.53 414.232 2886.53 415.664 2886.21 417.258 2885.56 419.014L2886.05 419.176C2888.7 415.448 2891.22 412.685 2893.61 410.888 2896 409.092 2898.46 408.193 2901 408.193 2903.52 408.193 2905.45 408.916 2906.8 410.362 2908.15 411.807 2908.82 413.813 2908.82 416.38 2908.82 418.082 2908.43 420.5 2907.65 423.634L2905.01 434.252C2904.29 437.197 2903.92 439.278 2903.92 440.494 2903.92 441.574 2904.1 442.358 2904.45 442.844 2904.8 443.331 2905.35 443.574 2906.11 443.574 2906.92 443.574 2907.78 443.243 2908.7 442.581 2909.62 441.919 2910.92 440.656 2912.59 438.792L2914.9 441.061C2912.58 443.547 2910.55 445.364 2908.82 446.512 2907.1 447.66 2905.12 448.234 2902.91 448.234 2901.15 448.234 2899.75 447.606 2898.69 446.35 2897.64 445.094 2897.11 443.493 2897.11 441.547 2897.11 439.791 2897.56 437.211 2898.45 433.807L2900.23 426.795C2900.88 424.256 2901.31 422.378 2901.51 421.162 2901.71 419.946 2901.81 418.96 2901.81 418.204 2901.81 416.339 2901.5 414.995 2900.88 414.171 2900.26 413.347 2899.25 412.935 2897.84 412.935 2896.71 412.935 2895.48 413.388 2894.17 414.293 2892.86 415.198 2891.47 416.562 2890 418.386 2888.53 420.21 2887.34 421.979 2886.45 423.695 2885.56 425.411 2884.83 427.525 2884.26 430.038L2880.41 447.586 2873.4 447.586 2879.32 421.892C2879.92 419.298 2880.21 417.298 2880.21 415.894 2880.21 414.813 2880.04 414.029 2879.69 413.543 2879.33 413.057 2878.78 412.813 2878.02 412.813 2877.19 412.813 2876.3 413.158 2875.37 413.847 2874.44 414.536 2873.16 415.785 2871.54 417.596L2869.23 415.326C2871.71 412.732 2873.78 410.888 2875.43 409.794 2877.08 408.7 2878.94 408.153 2881.02 408.153Z" fill="#FFFFFF" fill-rule="evenodd"/><text fill="#000000" fill-opacity="0" font-family="Arial,Arial_MSFontService,sans-serif" font-size="40.0815" x="2869.23" y="443.224">ğ‘›</text><path d="M2937.85 434.019C2939.3 434.019 2940.64 434.098 2941.89 434.257 2943.13 434.416 2944.41 434.664 2945.74 435.002L2944.07 442.299 2940.56 442.299C2940.54 441.267 2940.47 440.408 2940.34 439.723 2940.21 439.038 2940 438.497 2939.71 438.1 2939.42 437.702 2939.05 437.42 2938.58 437.251 2938.11 437.082 2937.54 436.988 2936.87 436.968 2935.79 436.968 2934.77 437.206 2933.78 437.683 2932.8 438.159 2931.89 438.819 2931.04 439.663 2930.2 440.507 2929.43 441.495 2928.74 442.627 2928.04 443.759 2927.44 444.98 2926.95 446.291 2926.45 447.601 2926.07 448.966 2925.8 450.386 2925.53 451.806 2925.4 453.221 2925.4 454.63 2925.4 456.735 2925.82 458.339 2926.65 459.441 2927.48 460.543 2928.74 461.094 2930.4 461.094 2931.34 461.094 2932.2 461.009 2932.99 460.841 2933.79 460.672 2934.56 460.389 2935.32 459.992 2936.07 459.595 2936.85 459.073 2937.66 458.428 2938.46 457.783 2939.35 456.983 2940.32 456.03 2940.7 456.427 2941.06 456.82 2941.41 457.207 2941.76 457.594 2942.12 457.986 2942.5 458.383 2940.35 460.607 2938.21 462.26 2936.06 463.343 2933.92 464.425 2931.61 464.966 2929.15 464.966 2926.07 464.966 2923.72 464.067 2922.08 462.27 2920.44 460.473 2919.62 457.907 2919.62 454.571 2919.62 452.704 2919.83 450.902 2920.25 449.165 2920.66 447.427 2921.26 445.794 2922.05 444.265 2922.83 442.736 2923.77 441.346 2924.86 440.095 2925.96 438.844 2927.18 437.767 2928.53 436.864 2929.88 435.96 2931.34 435.26 2932.91 434.764 2934.47 434.267 2936.12 434.019 2937.85 434.019Z" fill="#FFFFFF" fill-rule="evenodd"/><text fill="#000000" fill-opacity="0" font-family="Arial,Arial_MSFontService,sans-serif" font-size="30.9468" x="2919.62" y="461.097">ğ‘</text><path d="M2975.86 421.162 3025.79 421.162 3025.79 426.552 2975.86 426.552Z" fill="#FFFFFF" fill-rule="evenodd"/><text fill="#000000" fill-opacity="0" font-family="Arial,Arial_MSFontService,sans-serif" font-size="5.39014" x="2975.86" y="425.878">âˆ’</text><path d="M3076.21 391.618 3078.44 391.618C3078.28 394.211 3078.2 397.805 3078.2 402.398L3078.2 437.008C3078.2 438.575 3078.29 439.757 3078.46 440.554 3078.64 441.351 3078.95 442 3079.39 442.5 3079.84 443 3080.48 443.391 3081.32 443.675 3082.16 443.959 3083.21 444.175 3084.48 444.323 3085.75 444.472 3087.43 444.573 3089.51 444.627L3089.51 447.586 3059.56 447.586 3059.56 444.627C3062.55 444.492 3064.7 444.31 3065.98 444.08 3067.26 443.851 3068.24 443.506 3068.92 443.047 3069.59 442.588 3070.09 441.939 3070.4 441.102 3070.71 440.264 3070.86 438.9 3070.86 437.008L3070.86 404.141C3070.86 403.06 3070.67 402.27 3070.3 401.77 3069.92 401.27 3069.36 401.02 3068.63 401.02 3067.77 401.02 3066.54 401.466 3064.95 402.357 3063.35 403.249 3061.38 404.478 3059.03 406.045L3057.25 402.925Z" fill="#FFFFFF" fill-rule="evenodd"/><text fill="#000000" fill-opacity="0" font-family="Arial,Arial_MSFontService,sans-serif" font-size="55.9683" x="3057.25" y="440.59">1</text><path d="M3319.5 315.834C3319.5 286.931 3342.93 263.5 3371.83 263.5L4026.17 263.5C4055.07 263.5 4078.5 286.931 4078.5 315.834L4078.5 525.166C4078.5 554.069 4055.07 577.5 4026.17 577.5L3371.83 577.5C3342.93 577.5 3319.5 554.069 3319.5 525.166Z" stroke="#042433" stroke-width="6.875" stroke-miterlimit="8" fill="#156082" fill-rule="evenodd"/><text fill="#FFFFFF" font-family="Aptos,Aptos_MSFontService,sans-serif" font-weight="400" font-size="83" transform="matrix(1 0 0 1 3544.08 448)">Batch </text><path d="M3782 408.153C3783.71 408.153 3785.05 408.713 3786.04 409.835 3787.02 410.956 3787.52 412.422 3787.52 414.232 3787.52 415.664 3787.19 417.258 3786.54 419.014L3787.03 419.176C3789.68 415.448 3792.2 412.685 3794.59 410.888 3796.98 409.092 3799.44 408.193 3801.98 408.193 3804.5 408.193 3806.43 408.916 3807.78 410.362 3809.13 411.807 3809.81 413.813 3809.81 416.38 3809.81 418.082 3809.41 420.5 3808.63 423.634L3806 434.252C3805.27 437.197 3804.9 439.278 3804.9 440.494 3804.9 441.574 3805.08 442.358 3805.43 442.844 3805.78 443.331 3806.33 443.574 3807.09 443.574 3807.9 443.574 3808.77 443.243 3809.68 442.581 3810.6 441.919 3811.9 440.656 3813.57 438.792L3815.88 441.061C3813.56 443.547 3811.53 445.364 3809.81 446.512 3808.08 447.66 3806.1 448.234 3803.89 448.234 3802.13 448.234 3800.73 447.606 3799.67 446.35 3798.62 445.094 3798.09 443.493 3798.09 441.547 3798.09 439.791 3798.54 437.211 3799.43 433.807L3801.21 426.795C3801.86 424.256 3802.29 422.378 3802.49 421.162 3802.69 419.946 3802.79 418.96 3802.79 418.204 3802.79 416.339 3802.48 414.995 3801.86 414.171 3801.24 413.347 3800.23 412.935 3798.82 412.935 3797.69 412.935 3796.47 413.388 3795.15 414.293 3793.84 415.198 3792.45 416.562 3790.98 418.386 3789.51 420.21 3788.33 421.979 3787.43 423.695 3786.54 425.411 3785.81 427.525 3785.25 430.038L3781.4 447.586 3774.38 447.586 3780.3 421.892C3780.9 419.298 3781.19 417.298 3781.19 415.894 3781.19 414.813 3781.02 414.029 3780.67 413.543 3780.31 413.057 3779.76 412.813 3779 412.813 3778.17 412.813 3777.28 413.158 3776.35 413.847 3775.42 414.536 3774.14 415.785 3772.52 417.596L3770.21 415.326C3772.7 412.732 3774.76 410.888 3776.41 409.794 3778.06 408.7 3779.92 408.153 3782 408.153Z" fill="#FFFFFF" fill-rule="evenodd"/><text fill="#000000" fill-opacity="0" font-family="Arial,Arial_MSFontService,sans-serif" font-size="40.0815" x="3770.21" y="443.224">ğ‘›</text><path d="M3838.83 434.019C3840.28 434.019 3841.63 434.098 3842.87 434.257 3844.11 434.416 3845.39 434.664 3846.72 435.002L3845.06 442.299 3841.54 442.299C3841.52 441.267 3841.45 440.408 3841.32 439.723 3841.19 439.038 3840.98 438.497 3840.69 438.1 3840.4 437.702 3840.03 437.42 3839.56 437.251 3839.09 437.082 3838.52 436.988 3837.85 436.968 3836.78 436.968 3835.75 437.206 3834.76 437.683 3833.78 438.159 3832.87 438.819 3832.02 439.663 3831.18 440.507 3830.41 441.495 3829.72 442.627 3829.02 443.759 3828.43 444.98 3827.93 446.291 3827.43 447.601 3827.05 448.966 3826.78 450.386 3826.51 451.806 3826.38 453.221 3826.38 454.63 3826.38 456.735 3826.8 458.339 3827.63 459.441 3828.47 460.543 3829.72 461.094 3831.38 461.094 3832.32 461.094 3833.18 461.009 3833.98 460.841 3834.77 460.672 3835.54 460.389 3836.3 459.992 3837.05 459.595 3837.83 459.073 3838.64 458.428 3839.44 457.783 3840.33 456.983 3841.3 456.03 3841.68 456.427 3842.04 456.82 3842.39 457.207 3842.74 457.594 3843.1 457.986 3843.48 458.383 3841.33 460.607 3839.19 462.26 3837.04 463.343 3834.9 464.425 3832.6 464.966 3830.13 464.966 3827.06 464.966 3824.7 464.067 3823.06 462.27 3821.42 460.473 3820.6 457.907 3820.6 454.571 3820.6 452.704 3820.81 450.902 3821.23 449.165 3821.64 447.427 3822.25 445.794 3823.03 444.265 3823.81 442.736 3824.75 441.346 3825.84 440.095 3826.94 438.844 3828.16 437.767 3829.51 436.864 3830.86 435.96 3832.32 435.26 3833.89 434.764 3835.45 434.267 3837.1 434.019 3838.83 434.019Z" fill="#FFFFFF" fill-rule="evenodd"/><text fill="#000000" fill-opacity="0" font-family="Arial,Arial_MSFontService,sans-serif" font-size="30.9468" x="3820.6" y="461.097">ğ‘</text><path d="M2243.47 415.827C2245.96 415.827 2248.04 416.7 2249.72 418.447 2251.39 420.193 2252.23 422.406 2252.23 425.086 2252.23 427.766 2251.39 429.979 2249.72 431.725 2248.04 433.472 2245.96 434.345 2243.47 434.345 2240.98 434.345 2238.9 433.472 2237.23 431.725 2235.55 429.979 2234.71 427.766 2234.71 425.086 2234.71 422.406 2235.55 420.193 2237.23 418.447 2238.9 416.7 2240.98 415.827 2243.47 415.827ZM2199.97 415.827C2202.46 415.827 2204.54 416.7 2206.22 418.447 2207.89 420.193 2208.73 422.406 2208.73 425.086 2208.73 427.766 2207.89 429.979 2206.22 431.725 2204.54 433.472 2202.46 434.345 2199.97 434.345 2197.49 434.345 2195.4 433.472 2193.73 431.725 2192.05 429.979 2191.22 427.766 2191.22 425.086 2191.22 422.406 2192.05 420.193 2193.73 418.447 2195.4 416.7 2197.49 415.827 2199.97 415.827ZM2156.48 415.827C2158.97 415.827 2161.05 416.7 2162.72 418.447 2164.4 420.193 2165.23 422.406 2165.23 425.086 2165.23 427.766 2164.4 429.979 2162.72 431.725 2161.05 433.472 2158.97 434.345 2156.48 434.345 2153.99 434.345 2151.91 433.472 2150.23 431.725 2148.56 429.979 2147.72 427.766 2147.72 425.086 2147.72 422.406 2148.56 420.193 2150.23 418.447 2151.91 416.7 2153.99 415.827 2156.48 415.827Z" fill-rule="evenodd"/><text fill="#000000" fill-opacity="0" font-family="Arial,Arial_MSFontService,sans-serif" font-size="18.5186" x="2147.72" y="432.03">â‹¯</text><path d="M392.5 845.667C392.5 826.245 408.245 810.5 427.667 810.5L867.333 810.5C886.755 810.5 902.5 826.245 902.5 845.667L902.5 986.333C902.5 1005.76 886.755 1021.5 867.333 1021.5L427.667 1021.5C408.245 1021.5 392.5 1005.76 392.5 986.333Z" stroke="#042433" stroke-width="6.875" stroke-miterlimit="8" fill="#156082" fill-rule="evenodd"/><text fill="#FFFFFF" font-family="Aptos,Aptos_MSFontService,sans-serif" font-weight="400" font-size="73" transform="matrix(1 0 0 1 455.211 895)">Add_Educt1</text><text fill="#FFFFFF" font-family="Aptos,Aptos_MSFontService,sans-serif" font-weight="400" font-size="73" transform="matrix(1 0 0 1 585.263 983)">ID</text><text fill="#FFFFFF" font-family="Aptos,Aptos_MSFontService,sans-serif" font-weight="400" font-size="73" transform="matrix(1 0 0 1 669.482 983)">1</text><path d="M392.5 1197.67C392.5 1178.25 408.245 1162.5 427.667 1162.5L867.333 1162.5C886.755 1162.5 902.5 1178.25 902.5 1197.67L902.5 1338.33C902.5 1357.76 886.755 1373.5 867.333 1373.5L427.667 1373.5C408.245 1373.5 392.5 1357.76 392.5 1338.33Z" stroke="#042433" stroke-width="6.875" stroke-miterlimit="8" fill="#156082" fill-rule="evenodd"/><text fill="#FFFFFF" font-family="Aptos,Aptos_MSFontService,sans-serif" font-weight="400" font-size="73" transform="matrix(1 0 0 1 455.211 1248)">Add_Educt2</text><text fill="#FFFFFF" font-family="Aptos,Aptos_MSFontService,sans-serif" font-weight="400" font-size="73" transform="matrix(1 0 0 1 585.263 1336)">ID</text><text fill="#FFFFFF" font-family="Aptos,Aptos_MSFontService,sans-serif" font-weight="400" font-size="73" transform="matrix(1 0 0 1 669.482 1336)">2</text><path d="M353.5 1613.34C353.5 1559.3 397.302 1515.5 451.335 1515.5L842.665 1515.5C896.698 1515.5 940.5 1559.3 940.5 1613.34L940.5 2059.66C940.5 2113.7 896.698 2157.5 842.665 2157.5L451.335 2157.5C397.302 2157.5 353.5 2113.7 353.5 2059.66Z" stroke="#042433" stroke-width="6.875" stroke-miterlimit="8" fill="#156082" fill-rule="evenodd"/><text fill="#FFFFFF" font-family="Aptos,Aptos_MSFontService,sans-serif" font-weight="400" font-size="73" transform="matrix(1 0 0 1 455.211 1628)">Add_Educt3</text><path d="M392.5 1706.67C392.5 1687.25 408.245 1671.5 427.667 1671.5L867.333 1671.5C886.755 1671.5 902.5 1687.25 902.5 1706.67L902.5 1847.33C902.5 1866.75 886.755 1882.5 867.333 1882.5L427.667 1882.5C408.245 1882.5 392.5 1866.75 392.5 1847.33Z" stroke="#042433" stroke-width="6.875" stroke-miterlimit="8" fill="#A6CAEC" fill-rule="evenodd"/><text font-family="Aptos,Aptos_MSFontService,sans-serif" font-weight="400" font-size="73" transform="matrix(1 0 0 1 438.242 1757)">Add_Material</text><text font-family="Aptos,Aptos_MSFontService,sans-serif" font-weight="400" font-size="73" transform="matrix(1 0 0 1 555.185 1845)">ID</text><text font-family="Aptos,Aptos_MSFontService,sans-serif" font-weight="400" font-size="73" transform="matrix(1 0 0 1 639.404 1845)">3.1</text><path d="M392.5 1940.67C392.5 1921.24 408.245 1905.5 427.667 1905.5L867.333 1905.5C886.755 1905.5 902.5 1921.24 902.5 1940.67L902.5 2081.33C902.5 2100.75 886.755 2116.5 867.333 2116.5L427.667 2116.5C408.245 2116.5 392.5 2100.75 392.5 2081.33Z" stroke="#042433" stroke-width="6.875" stroke-miterlimit="8" fill="#A6CAEC" fill-rule="evenodd"/><text font-family="Aptos,Aptos_MSFontService,sans-serif" font-weight="400" font-size="73" transform="matrix(1 0 0 1 505.972 1991)">Agitation</text><text font-family="Aptos,Aptos_MSFontService,sans-serif" font-weight="400" font-size="73" transform="matrix(1 0 0 1 555.197 2079)">ID</text><text font-family="Aptos,Aptos_MSFontService,sans-serif" font-weight="400" font-size="73" transform="matrix(1 0 0 1 639.415 2079)">3.2</text><path d="M1308.5 922.503C1308.5 860.645 1358.65 810.5 1420.5 810.5L1868.5 810.5C1930.35 810.5 1980.5 860.645 1980.5 922.503L1980.5 1575.5C1980.5 1637.35 1930.35 1687.5 1868.5 1687.5L1420.5 1687.5C1358.65 1687.5 1308.5 1637.35 1308.5 1575.5Z" stroke="#042433" stroke-width="6.875" stroke-miterlimit="8" fill="#156082" fill-rule="evenodd"/><text fill="#FFFFFF" font-family="Aptos,Aptos_MSFontService,sans-serif" font-weight="400" font-size="73" transform="matrix(1 0 0 1 1466.66 927)">Add_Solids</text><path d="M1350.5 1001.67C1350.5 982.245 1366.25 966.5 1385.67 966.5L1903.33 966.5C1922.75 966.5 1938.5 982.245 1938.5 1001.67L1938.5 1142.33C1938.5 1161.75 1922.75 1177.5 1903.33 1177.5L1385.67 1177.5C1366.25 1177.5 1350.5 1161.75 1350.5 1142.33Z" stroke="#042433" stroke-width="6.875" stroke-miterlimit="8" fill="#A6CAEC" fill-rule="evenodd"/><text font-family="Aptos,Aptos_MSFontService,sans-serif" font-weight="400" font-size="73" transform="matrix(1 0 0 1 1414.49 1051)">Wait_Operator</text><text font-family="Aptos,Aptos_MSFontService,sans-serif" font-weight="400" font-size="73" transform="matrix(1 0 0 1 1552.31 1139)">ID</text><text font-family="Aptos,Aptos_MSFontService,sans-serif" font-weight="400" font-size="73" transform="matrix(1 0 0 1 1636.53 1139)">4.</text><text font-family="Aptos,Aptos_MSFontService,sans-serif" font-weight="400" font-size="73" transform="matrix(1 0 0 1 1696.69 1139)">1</text><path d="M1350.5 1234.83C1350.5 1215.32 1366.32 1199.5 1385.83 1199.5L1903.17 1199.5C1922.68 1199.5 1938.5 1215.32 1938.5 1234.83L1938.5 1376.17C1938.5 1395.68 1922.68 1411.5 1903.17 1411.5L1385.83 1411.5C1366.32 1411.5 1350.5 1395.68 1350.5 1376.17Z" stroke="#042433" stroke-width="6.875" stroke-miterlimit="8" fill="#A6CAEC" fill-rule="evenodd"/><text font-family="Aptos,Aptos_MSFontService,sans-serif" font-weight="400" font-size="73" transform="matrix(1 0 0 1 1469.53 1285)">Add_solids</text><text font-family="Aptos,Aptos_MSFontService,sans-serif" font-weight="400" font-size="73" transform="matrix(1 0 0 1 1552.3 1373)">ID</text><text font-family="Aptos,Aptos_MSFontService,sans-serif" font-weight="400" font-size="73" transform="matrix(1 0 0 1 1636.52 1373)">4.2</text><path d="M1350.5 1468.83C1350.5 1449.32 1366.32 1433.5 1385.83 1433.5L1903.17 1433.5C1922.68 1433.5 1938.5 1449.32 1938.5 1468.83L1938.5 1610.17C1938.5 1629.68 1922.68 1645.5 1903.17 1645.5L1385.83 1645.5C1366.32 1645.5 1350.5 1629.68 1350.5 1610.17Z" stroke="#042433" stroke-width="6.875" stroke-miterlimit="8" fill="#A6CAEC" fill-rule="evenodd"/><text font-family="Aptos,Aptos_MSFontService,sans-serif" font-weight="400" font-size="73" transform="matrix(1 0 0 1 1436.32 1519)">Wait_Control</text><text font-family="Aptos,Aptos_MSFontService,sans-serif" font-weight="400" font-size="73" transform="matrix(1 0 0 1 1552.3 1607)">ID</text><text font-family="Aptos,Aptos_MSFontService,sans-serif" font-weight="400" font-size="73" transform="matrix(1 0 0 1 1636.52 1607)">4.3</text><path d="M1363.5 1855.67C1363.5 1836.24 1379.25 1820.5 1398.67 1820.5L1890.33 1820.5C1909.75 1820.5 1925.5 1836.24 1925.5 1855.67L1925.5 1996.33C1925.5 2015.76 1909.75 2031.5 1890.33 2031.5L1398.67 2031.5C1379.25 2031.5 1363.5 2015.76 1363.5 1996.33Z" stroke="#042433" stroke-width="6.875" stroke-miterlimit="8" fill="#156082" fill-rule="evenodd"/><text fill="#FFFFFF" font-family="Aptos,Aptos_MSFontService,sans-serif" font-weight="400" font-size="73" transform="matrix(1 0 0 1 1416.26 1905)">Centrifugatio</text><text fill="#FFFFFF" font-family="Aptos,Aptos_MSFontService,sans-serif" font-weight="400" font-size="73" transform="matrix(1 0 0 1 1831.03 1905)">n</text><text fill="#FFFFFF" font-family="Aptos,Aptos_MSFontService,sans-serif" font-weight="400" font-size="73" transform="matrix(1 0 0 1 1582.38 1993)">ID</text><text fill="#FFFFFF" font-family="Aptos,Aptos_MSFontService,sans-serif" font-weight="400" font-size="73" transform="matrix(1 0 0 1 1666.6 1993)">5</text><path d="M2324.5 845.668C2324.5 826.245 2340.25 810.5 2359.67 810.5L2935.33 810.5C2954.75 810.5 2970.5 826.245 2970.5 845.668L2970.5 986.333C2970.5 1005.76 2954.75 1021.5 2935.33 1021.5L2359.67 1021.5C2340.25 1021.5 2324.5 1005.76 2324.5 986.333Z" stroke="#042433" stroke-width="6.875" stroke-miterlimit="8" fill="#156082" fill-rule="evenodd"/><text fill="#FFFFFF" font-family="Aptos,Aptos_MSFontService,sans-serif" font-weight="400" font-size="73" transform="matrix(1 0 0 1 2378.26 895)">Product_Transfer</text><text fill="#FFFFFF" font-family="Aptos,Aptos_MSFontService,sans-serif" font-weight="400" font-size="73" transform="matrix(1 0 0 1 2585.61 983)">ID</text><text fill="#FFFFFF" font-family="Aptos,Aptos_MSFontService,sans-serif" font-weight="400" font-size="73" transform="matrix(1 0 0 1 2669.83 983)">6</text><path d="M2324.5 1158.67C2324.5 1139.24 2340.25 1123.5 2359.67 1123.5L2935.33 1123.5C2954.75 1123.5 2970.5 1139.24 2970.5 1158.67L2970.5 1299.33C2970.5 1318.75 2954.75 1334.5 2935.33 1334.5L2359.67 1334.5C2340.25 1334.5 2324.5 1318.75 2324.5 1299.33Z" stroke="#042433" stroke-width="6.875" stroke-miterlimit="8" fill="#156082" fill-rule="evenodd"/><text fill="#FFFFFF" font-family="Aptos,Aptos_MSFontService,sans-serif" font-weight="400" font-size="73" transform="matrix(1 0 0 1 2505.68 1209)">Reaction</text><text fill="#FFFFFF" font-family="Aptos,Aptos_MSFontService,sans-serif" font-weight="400" font-size="73" transform="matrix(1 0 0 1 2585.61 1297)">ID</text><text fill="#FFFFFF" font-family="Aptos,Aptos_MSFontService,sans-serif" font-weight="400" font-size="73" transform="matrix(1 0 0 1 2669.83 1297)">7</text><path d="M2324.5 1471.83C2324.5 1452.32 2340.32 1436.5 2359.83 1436.5L2935.17 1436.5C2954.68 1436.5 2970.5 1452.32 2970.5 1471.83L2970.5 1613.17C2970.5 1632.68 2954.68 1648.5 2935.17 1648.5L2359.83 1648.5C2340.32 1648.5 2324.5 1632.68 2324.5 1613.17Z" stroke="#042433" stroke-width="6.875" stroke-miterlimit="8" fill="#156082" fill-rule="evenodd"/><text fill="#FFFFFF" font-family="Aptos,Aptos_MSFontService,sans-serif" font-weight="400" font-size="73" transform="matrix(1 0 0 1 2419.33 1522)">Post_Reaction</text><text fill="#FFFFFF" font-family="Aptos,Aptos_MSFontService,sans-serif" font-weight="400" font-size="73" transform="matrix(1 0 0 1 2585.61 1610)">ID</text><text fill="#FFFFFF" font-family="Aptos,Aptos_MSFontService,sans-serif" font-weight="400" font-size="73" transform="matrix(1 0 0 1 2669.83 1610)">8</text><path d="M2324.5 1784.83C2324.5 1765.32 2340.32 1749.5 2359.83 1749.5L2935.17 1749.5C2954.68 1749.5 2970.5 1765.32 2970.5 1784.83L2970.5 1926.17C2970.5 1945.68 2954.68 1961.5 2935.17 1961.5L2359.83 1961.5C2340.32 1961.5 2324.5 1945.68 2324.5 1926.17Z" stroke="#042433" stroke-width="6.875" stroke-miterlimit="8" fill="#156082" fill-rule="evenodd"/><text fill="#FFFFFF" font-family="Aptos,Aptos_MSFontService,sans-serif" font-weight="400" font-size="73" transform="matrix(1 0 0 1 2524.58 1835)">Coolin</text><text fill="#FFFFFF" font-family="Aptos,Aptos_MSFontService,sans-serif" font-weight="400" font-size="73" transform="matrix(1 0 0 1 2734.27 1835)">g</text><text fill="#FFFFFF" font-family="Aptos,Aptos_MSFontService,sans-serif" font-weight="400" font-size="73" transform="matrix(1 0 0 1 2585.61 1923)">ID</text><text fill="#FFFFFF" font-family="Aptos,Aptos_MSFontService,sans-serif" font-weight="400" font-size="73" transform="matrix(1 0 0 1 2669.83 1923)">9</text><path d="M2324.5 2098.67C2324.5 2079.25 2340.25 2063.5 2359.67 2063.5L2935.33 2063.5C2954.75 2063.5 2970.5 2079.25 2970.5 2098.67L2970.5 2239.33C2970.5 2258.75 2954.75 2274.5 2935.33 2274.5L2359.67 2274.5C2340.25 2274.5 2324.5 2258.75 2324.5 2239.33Z" stroke="#042433" stroke-width="6.875" stroke-miterlimit="8" fill="#156082" fill-rule="evenodd"/><text fill="#FFFFFF" font-family="Aptos,Aptos_MSFontService,sans-serif" font-weight="400" font-size="73" transform="matrix(1 0 0 1 2374.47 2148)">Material_Transfer</text><text fill="#FFFFFF" font-family="Aptos,Aptos_MSFontService,sans-serif" font-weight="400" font-size="73" transform="matrix(1 0 0 1 2566.12 2236)">ID</text><text fill="#FFFFFF" font-family="Aptos,Aptos_MSFontService,sans-serif" font-weight="400" font-size="73" transform="matrix(1 0 0 1 2650.34 2236)">1</text><text fill="#FFFFFF" font-family="Aptos,Aptos_MSFontService,sans-serif" font-weight="400" font-size="73" transform="matrix(1 0 0 1 2689.3 2236)">0</text><path d="M3249.5 932.169C3249.5 864.973 3303.97 810.5 3371.17 810.5L3857.83 810.5C3925.03 810.5 3979.5 864.973 3979.5 932.169L3979.5 2035.83C3979.5 2103.03 3925.03 2157.5 3857.83 2157.5L3371.17 2157.5C3303.97 2157.5 3249.5 2103.03 3249.5 2035.83Z" stroke="#042433" stroke-width="6.875" stroke-miterlimit="8" fill="#156082" fill-rule="evenodd"/><text fill="#FFFFFF" font-family="Aptos,Aptos_MSFontService,sans-serif" font-weight="400" font-size="73" transform="matrix(1 0 0 1 3473.19 930)">Cleanin</text><text fill="#FFFFFF" font-family="Aptos,Aptos_MSFontService,sans-serif" font-weight="400" font-size="73" transform="matrix(1 0 0 1 3719.54 930)">g</text><path d="M3291.5 1001.67C3291.5 982.245 3307.25 966.5 3326.67 966.5L3902.33 966.5C3921.76 966.5 3937.5 982.245 3937.5 1001.67L3937.5 1142.33C3937.5 1161.76 3921.76 1177.5 3902.33 1177.5L3326.67 1177.5C3307.25 1177.5 3291.5 1161.76 3291.5 1142.33Z" stroke="#042433" stroke-width="6.875" stroke-miterlimit="8" fill="#A6CAEC" fill-rule="evenodd"/><text font-family="Aptos,Aptos_MSFontService,sans-serif" font-weight="400" font-size="73" transform="matrix(1 0 0 1 3370.01 1051)">Spay_CLeanin</text><text font-family="Aptos,Aptos_MSFontService,sans-serif" font-weight="400" font-size="73" transform="matrix(1 0 0 1 3822.73 1051)">g</text><text font-family="Aptos,Aptos_MSFontService,sans-serif" font-weight="400" font-size="73" transform="matrix(1 0 0 1 3502.97 1139)">ID</text><text font-family="Aptos,Aptos_MSFontService,sans-serif" font-weight="400" font-size="73" transform="matrix(1 0 0 1 3587.19 1139)">11.</text><text font-family="Aptos,Aptos_MSFontService,sans-serif" font-weight="400" font-size="73" transform="matrix(1 0 0 1 3686.3 1139)">1</text><path d="M3291.5 1234.83C3291.5 1215.32 3307.32 1199.5 3326.83 1199.5L3902.17 1199.5C3921.68 1199.5 3937.5 1215.32 3937.5 1234.83L3937.5 1376.17C3937.5 1395.68 3921.68 1411.5 3902.17 1411.5L3326.83 1411.5C3307.32 1411.5 3291.5 1395.68 3291.5 1376.17Z" stroke="#042433" stroke-width="6.875" stroke-miterlimit="8" fill="#A6CAEC" fill-rule="evenodd"/><text font-family="Aptos,Aptos_MSFontService,sans-serif" font-weight="400" font-size="73" transform="matrix(1 0 0 1 3402.97 1285)">Recirculation</text><text font-family="Aptos,Aptos_MSFontService,sans-serif" font-weight="400" font-size="73" transform="matrix(1 0 0 1 3502.98 1373)">ID</text><text font-family="Aptos,Aptos_MSFontService,sans-serif" font-weight="400" font-size="73" transform="matrix(1 0 0 1 3587.2 1373)">11.</text><text font-family="Aptos,Aptos_MSFontService,sans-serif" font-weight="400" font-size="73" transform="matrix(1 0 0 1 3686.32 1373)">2</text><path d="M3291.5 1468.83C3291.5 1449.32 3307.32 1433.5 3326.83 1433.5L3902.17 1433.5C3921.68 1433.5 3937.5 1449.32 3937.5 1468.83L3937.5 1610.17C3937.5 1629.68 3921.68 1645.5 3902.17 1645.5L3326.83 1645.5C3307.32 1645.5 3291.5 1629.68 3291.5 1610.17Z" stroke="#042433" stroke-width="6.875" stroke-miterlimit="8" fill="#A6CAEC" fill-rule="evenodd"/><text font-family="Aptos,Aptos_MSFontService,sans-serif" font-weight="400" font-size="73" transform="matrix(1 0 0 1 3437.57 1519)">Flush_Tank</text><text font-family="Aptos,Aptos_MSFontService,sans-serif" font-weight="400" font-size="73" transform="matrix(1 0 0 1 3502.97 1607)">ID</text><text font-family="Aptos,Aptos_MSFontService,sans-serif" font-weight="400" font-size="73" transform="matrix(1 0 0 1 3587.19 1607)">11.3</text><path d="M3291.5 1702.67C3291.5 1683.25 3307.25 1667.5 3326.67 1667.5L3902.33 1667.5C3921.76 1667.5 3937.5 1683.25 3937.5 1702.67L3937.5 1843.33C3937.5 1862.76 3921.76 1878.5 3902.33 1878.5L3326.67 1878.5C3307.25 1878.5 3291.5 1862.76 3291.5 1843.33Z" stroke="#042433" stroke-width="6.875" stroke-miterlimit="8" fill="#A6CAEC" fill-rule="evenodd"/><text font-family="Aptos,Aptos_MSFontService,sans-serif" font-weight="400" font-size="73" transform="matrix(1 0 0 1 3339.44 1753)">Secondary_Rinse</text><text font-family="Aptos,Aptos_MSFontService,sans-serif" font-weight="400" font-size="73" transform="matrix(1 0 0 1 3502.97 1841)">ID 11.4</text><path d="M3291.5 1936.83C3291.5 1917.32 3307.32 1901.5 3326.83 1901.5L3902.17 1901.5C3921.68 1901.5 3937.5 1917.32 3937.5 1936.83L3937.5 2078.17C3937.5 2097.68 3921.68 2113.5 3902.17 2113.5L3326.83 2113.5C3307.32 2113.5 3291.5 2097.68 3291.5 2078.17Z" stroke="#042433" stroke-width="6.875" stroke-miterlimit="8" fill="#A6CAEC" fill-rule="evenodd"/><text font-family="Aptos,Aptos_MSFontService,sans-serif" font-weight="400" font-size="73" transform="matrix(1 0 0 1 3437.57 1987)">Flush_Tank</text><text font-family="Aptos,Aptos_MSFontService,sans-serif" font-weight="400" font-size="73" transform="matrix(1 0 0 1 3502.97 2075)">ID 11.5</text><path d="M652.156 1021 652.156 1135.85 641.844 1135.85 641.844 1021ZM662.469 1130.69 647 1161.63 631.531 1130.69Z"/><path d="M652.156 1373 652.156 1489.2 641.844 1489.2 641.844 1373ZM662.469 1484.05 647 1514.98 631.531 1484.05Z"/><path d="M1649.16 1687 1649.16 1794.29 1638.84 1794.29 1638.84 1687ZM1659.47 1789.14 1644 1820.07 1628.53 1789.14Z"/><path d="M2652.16 1021 2652.16 1097.02 2641.84 1097.02 2641.84 1021ZM2662.47 1091.87 2647 1122.8 2631.53 1091.87Z"/><path d="M2652.16 1334 2652.16 1410.02 2641.84 1410.02 2641.84 1334ZM2662.47 1404.87 2647 1435.8 2631.53 1404.87Z"/><path d="M2652.16 1648 2652.16 1724.02 2641.84 1724.02 2641.84 1648ZM2662.47 1718.87 2647 1749.8 2631.53 1718.87Z"/><path d="M5.15625-1.82787e-05 5.15652 76.0232-5.15598 76.0233-5.15625 1.82787e-05ZM15.469 70.8669 0.000360892 101.804-15.4685 70.8671Z" transform="matrix(-1 0 0 1 2647 1961)"/><path d="M0.254544-5.14996 9.12229-4.71166 18.2039-3.38135 27.2179-1.20662 36.1433 1.77711 44.9622 5.53492 53.6588 10.033 62.2186 15.2389 70.6279 21.1216 78.8733 27.6511 86.9415 34.7985 94.8188 42.5356 102.491 50.8349 109.944 59.6692 117.164 69.0115 124.135 78.8352 130.842 89.1138 137.269 99.8208 143.402 110.93 149.223 122.415 154.736 134.288 164.646 158.819 169.076 171.584 173.099 184.552 176.712 197.738 179.899 211.115 182.643 224.658 184.926 238.339 186.733 252.133 188.044 266.012 188.844 279.951 189.113 293.822 189.379 307.595 189.372 307.4 190.161 321.146 190.146 320.956 191.44 334.648 191.419 334.464 193.202 348.076 193.175 347.896 195.429 361.4 195.397 361.225 198.105 374.595 198.068 374.424 201.214 387.632 201.171 387.464 204.739 400.484 204.691 400.319 208.663 413.123 208.609 412.96 212.968 425.523 212.878 425.281 222.691 449.572 222.587 449.332 228.007 461.006 227.93 460.846 233.67 472.17 233.585 472.01 239.628 482.957 239.535 482.795 245.865 493.339 245.762 493.176 252.361 503.289 252.248 503.123 259.1 512.779 258.975 512.61 266.062 521.781 265.924 521.609 273.23 530.27 273.075 530.094 280.584 538.216 280.411 538.038 288.105 545.595 287.911 545.414 295.773 552.379 295.555 552.196 303.569 558.543 303.323 558.36 311.472 564.06 311.196 563.88 319.462 568.907 319.152 568.733 327.519 573.061 327.172 572.897 335.624 576.498 334.821 576.232 343.736 578.401 341.298 588.421 331.971 586.152 322.952 582.309 314.256 577.811 305.696 572.605 297.287 566.722 289.041 560.193 280.973 553.045 273.096 545.308 265.423 537.009 257.97 528.175 250.751 518.832 243.78 509.009 237.073 498.73 230.645 488.023 224.513 476.914 218.691 465.429 213.179 453.556 203.268 429.025 198.839 416.26 194.816 403.292 191.203 390.106 188.016 376.728 185.272 363.186 182.988 349.505 181.182 335.711 179.87 321.832 179.071 307.893 178.802 294.022 178.535 280.249 178.543 280.444 177.754 266.698 177.769 266.888 176.475 253.195 176.495 253.38 174.713 239.768 174.74 239.947 172.486 226.443 172.518 226.618 169.809 213.249 169.847 213.42 166.7 200.212 166.743 200.38 163.176 187.36 163.224 187.525 159.252 174.721 159.305 174.883 154.946 162.321 155.037 162.562 145.223 138.272 145.328 138.512 139.907 126.838 139.985 126.998 134.245 115.673 134.33 115.834 128.286 104.886 128.38 105.048 122.05 94.5045 122.152 94.6683 115.553 84.5549 115.666 84.7211 108.815 75.0651 108.94 75.2341 101.852 66.0625 101.991 66.2345 94.6845 57.5742 94.8393 57.7495 87.3307 49.6273 87.5038 49.8057 79.8099 42.2487 80.0039 42.4297 72.1416 35.4646 72.3597 35.6473 64.3458 29.3012 64.5912 29.484 56.4426 23.7837 56.7189 23.9641 48.4524 18.9365 48.7628 19.111 40.3953 14.783 40.7429 14.9467 32.2911 11.3453 32.6776 11.492 24.1584 8.64409 24.5839 8.76629 16.0142 6.69875 16.4762 6.78812 7.87286 5.52787 8.36565 5.57603-0.254544 5.14996ZM340.098 567.286 367.915 587.844 334.778 597.763Z" transform="matrix(1 0 0 -1 940 1835.84)"/><path d="M0.402266-5.14053 10.1429-4.3783 20.201-2.04563 30.1254 1.74526 39.8922 6.91449 49.4907 13.39 58.9168 21.1089 68.1669 30.0159 77.2365 40.0608 86.1184 51.1964 94.8032 63.3773 103.28 76.5587 111.535 90.6963 119.554 105.746 127.323 121.662 134.825 138.401 142.045 155.919 148.965 174.169 155.568 193.107 161.837 212.687 167.754 232.865 173.302 253.595 178.463 274.831 183.218 296.528 187.551 318.641 191.442 341.123 194.873 363.929 197.827 387.013 200.286 410.33 202.23 433.834 203.641 457.479 204.501 481.22 204.792 504.946 205.081 528.61 205.078 528.487 205.934 552.105 205.928 551.985 207.332 575.511 207.324 575.393 209.258 598.78 209.248 598.664 211.694 621.867 211.68 621.753 214.62 644.724 214.604 644.611 218.019 667.305 218.001 667.193 221.872 689.563 221.852 689.451 226.162 711.451 226.139 711.338 230.87 732.922 230.843 732.809 235.976 753.93 235.947 753.815 241.463 774.428 241.43 774.31 247.312 794.368 247.275 794.247 253.505 813.704 253.463 813.579 260.021 832.389 259.974 832.258 266.843 850.375 266.789 850.238 273.95 867.615 273.888 867.47 281.324 884.061 281.252 883.908 288.944 899.667 288.861 899.504 296.79 914.384 296.692 914.208 304.841 928.164 304.725 927.975 313.075 940.959 312.936 940.755 321.468 952.722 321.301 952.5 329.998 963.404 329.794 963.163 338.637 972.957 338.386 972.699 347.358 981.337 347.048 981.062 356.129 988.498 355.745 988.213 364.918 994.401 364.011 993.913 376.239 998.991 372.285 1008.51 359.579 1003.24 349.78 996.628 340.354 988.909 331.104 980.002 322.034 969.957 313.152 958.822 304.468 946.641 295.991 933.459 287.736 919.322 279.717 904.272 271.948 888.356 264.446 871.617 257.226 854.1 250.306 835.849 243.703 816.912 237.434 797.331 231.517 777.153 225.969 756.423 220.809 735.187 216.053 713.49 211.721 691.377 207.83 668.895 204.398 646.089 201.444 623.005 198.986 599.688 197.042 576.184 195.63 552.539 194.77 528.798 194.48 505.072 194.19 481.408 194.193 481.531 193.337 457.913 193.343 458.033 191.939 434.508 191.947 434.625 190.013 411.238 190.024 411.354 187.578 388.151 187.591 388.265 184.651 365.294 184.667 365.407 181.252 342.713 181.271 342.825 177.399 320.455 177.419 320.568 173.109 298.567 173.132 298.68 168.402 277.096 168.428 277.21 163.295 256.088 163.325 256.203 157.808 235.59 157.841 235.708 151.959 215.65 151.996 215.771 145.766 196.314 145.808 196.439 139.25 177.629 139.297 177.76 132.428 159.643 132.482 159.78 125.321 142.403 125.383 142.548 117.947 125.957 118.018 126.11 110.327 110.351 110.41 110.514 102.481 95.6346 102.579 95.8097 94.4299 81.8544 94.5458 82.0433 86.1961 69.059 86.3347 69.2635 77.8023 57.2964 77.9696 57.5182 69.2727 46.6144 69.4767 46.8547 60.6336 37.0606 60.8842 37.3194 51.9131 28.6811 52.2228 28.9562 43.142 21.5201 43.5252 21.8052 34.3531 15.6175 34.8247 15.9003 25.5795 11.0071 26.1516 11.2666 16.8516 7.7142 17.5266 7.92033 8.18997 5.75499 8.95261 5.87259-0.402266 5.14053ZM373.019 987.495 399.27 1010.02 365.501 1017.5Z" transform="matrix(1 0 0 -1 1925 1925.02)"/><path d="M0.390763-5.14142 7.29939-4.61635 14.5239-2.98903 21.632-0.351992 28.6049 3.23235 35.436 7.70826 42.125 13.0283 48.6729 19.1519 55.0795 26.0434 61.3428 33.6701 67.4585 42.001 73.4208 51.0061 79.2221 60.6555 84.8537 70.9197 90.306 81.7688 95.5687 93.1731 100.631 105.103 105.481 117.527 110.109 130.417 114.501 143.741 118.646 157.469 122.532 171.57 126.153 186.043 132.511 215.809 137.638 246.607 141.424 278.132 142.788 294.145 143.776 310.226 144.379 326.372 144.582 342.488 144.784 358.54 144.781 358.412 145.378 374.433 145.372 374.309 146.353 390.267 146.344 390.146 147.695 406.009 147.677 405.832 151.438 437.152 151.405 436.92 156.494 467.487 156.45 467.257 162.764 496.82 162.724 496.646 166.309 510.973 166.278 510.855 170.13 524.837 170.096 524.716 174.204 538.322 174.165 538.198 178.515 551.396 178.471 551.268 183.052 564.027 183.002 563.894 187.799 576.183 187.743 576.044 192.744 587.83 192.68 587.684 197.873 598.938 197.798 598.783 203.17 609.472 203.083 609.307 208.621 619.4 208.52 619.224 214.211 628.69 214.091 628.5 219.922 637.307 219.779 637.102 225.738 645.22 225.567 644.999 231.64 652.395 231.432 652.157 237.608 658.8 237.354 658.545 243.619 664.404 243.307 664.135 249.649 669.179 248.594 668.53 256.57 672.199 252.261 681.568 243.718 677.638 236.726 672.077 230.178 665.954 223.771 659.062 217.508 651.435 211.392 643.104 205.43 634.099 199.629 624.45 193.997 614.186 188.545 603.337 183.282 591.932 178.22 580.003 173.37 567.578 168.742 554.689 164.35 541.365 160.205 527.637 156.319 513.535 152.698 499.062 146.341 469.296 141.213 438.498 137.427 406.973 136.064 390.96 135.075 374.88 134.473 358.733 134.27 342.618 134.068 326.566 134.071 326.693 133.473 310.672 133.479 310.796 132.498 294.839 132.507 294.96 131.156 279.096 131.175 279.273 127.413 247.954 127.446 248.185 122.358 217.618 122.401 217.849 116.087 188.285 116.127 188.46 112.543 174.133 112.574 174.251 108.721 160.269 108.756 160.389 104.647 146.784 104.687 146.908 100.336 133.709 100.38 133.837 95.7995 121.078 95.8493 121.211 91.0518 108.923 91.1085 109.062 86.1068 97.2752 86.1716 97.4215 80.9784 86.1679 81.053 86.3227 75.6812 75.6336 75.7678 75.7985 70.23 65.7053 70.3314 65.8818 64.6405 56.4158 64.7603 56.6056 58.9289 47.7983 59.0717 48.003 53.1126 39.8855 53.2844 40.1066 47.2105 32.7105 47.4188 32.9489 41.2428 26.3054 41.4972 26.5607 35.2319 20.7013 35.5442 20.9708 29.2023 15.9268 29.5859 16.2042 23.1801 12.007 23.6487 12.2799 17.1919 8.96079 17.7558 9.20924 11.2606 6.79962 11.921 6.99555 5.40037 5.52678 6.14266 5.63798-0.390763 5.14142ZM254.462 660.578 278.851 685.105 244.595 689.9Z" transform="matrix(1 0 0 -1 2970 2168.11)"/><path d="M1081 414.844 1125.39 414.844 1125.39 425.157 1081 425.156ZM1120.24 404.532 1151.17 420 1120.24 435.469Z"/><path d="M3249 414.844 3293.39 414.844 3293.39 425.157 3249 425.156ZM3288.24 404.532 3319.17 420 3288.24 435.469Z"/></g></svg>